# xmcd
#
# Track frame offsets:
#	150
#	8705
#	16780
#	36457
#	50704
#	55724
#	66852
#	78803
#	103667
#	118537
#	119748
#	142847
#	148303
#	155871
#	160107
#	185205
#	199627
#	210559
#	228169
#
# Disc length: 3193 seconds
#
# Revision: 0
# Processed by: cddbd v1.5.2PL0 Copyright (c) Steve Scherf et al.
# Submitted via: VUPlayer 2.44
#
DISCID=0c0c7713
DTITLE=Ha'oman Hai Ensamble - Kalmus 12-2-05 - 2nd part
DYEAR=2005
DGENRE=Folk
TTITLE0=Ha'oman Hai Ensamble - Pada End
TTITLE1=Ha'oman Hai Ensamble - Happy Song
TTITLE2=Ha'oman Hai Ensamble - ENCORE: Neshama
TTITLE3=Ha'oman Hai Ensamble - ENCORE: Eich Doo
TTITLE4=Ha'oman Hai Ensamble - AFTER-SHOW
TTITLE5=Ha'oman Hai Ensamble - Neshama
TTITLE6=Ha'oman Hai Ensamble - Nigun Rikud
TTITLE7=Ha'oman Hai Ensamble - Zamaa (Yair)
TTITLE8=Ha'oman Hai Ensamble - Eich Doo
TTITLE9=Ha'oman Hai Ensamble - - Rabi Aharon -
TTITLE10=Ha'oman Hai Ensamble - Rabi Aharon (Yoni)
TTITLE11=Ha'oman Hai Ensamble - - Nitai Ha'Arbeli -
TTITLE12=Ha'oman Hai Ensamble - Nitai Ha'Arbeli (Matti)
TTITLE13=Ha'oman Hai Ensamble - Ehad Mi Yodea BIT (Matti)
TTITLE14=Ha'oman Hai Ensamble - 
TTITLE15=Ha'oman Hai Ensamble - Nigun Rikud REHERSAL
TTITLE16=Ha'oman Hai Ensamble - 
TTITLE17=Ha'oman Hai Ensamble - Zamaa REHERSAL
TTITLE18=Ha'oman Hai Ensamble - Eich Doo REHERSAL
EXTD=
EXTT0=
EXTT1=
EXTT2=
EXTT3=
EXTT4=
EXTT5=
EXTT6=
EXTT7=
EXTT8=
EXTT9=
EXTT10=
EXTT11=
EXTT12=
EXTT13=
EXTT14=
EXTT15=
EXTT16=
EXTT17=
EXTT18=
PLAYORDER=
